<?xml version="1.0" encoding="UTF-8" standalone="no"?>
<!-- Created with Inkscape (http://www.inkscape.org/) -->

<svg
   xmlns:dc="http://purl.org/dc/elements/1.1/"
   xmlns:cc="http://creativecommons.org/ns#"
   xmlns:rdf="http://www.w3.org/1999/02/22-rdf-syntax-ns#"
   xmlns:svg="http://www.w3.org/2000/svg"
   xmlns="http://www.w3.org/2000/svg"
   xmlns:sodipodi="http://sodipodi.sourceforge.net/DTD/sodipodi-0.dtd"
   xmlns:inkscape="http://www.inkscape.org/namespaces/inkscape"
   version="1.1"
   id="svg3753"
   width="75.20047"
   height="60.882469"
   viewBox="0 0 75.20047 60.882469"
   sodipodi:docname="clapperboard.svg"
   inkscape:version="0.92.2 5c3e80d, 2017-08-06">
  <metadata
     id="metadata3759">
    <rdf:RDF>
      <cc:Work
         rdf:about="">
        <dc:format>image/svg+xml</dc:format>
        <dc:type
           rdf:resource="http://purl.org/dc/dcmitype/StillImage" />
        <dc:title />
      </cc:Work>
    </rdf:RDF>
  </metadata>
  <defs
     id="defs3757" />
  <sodipodi:namedview
     pagecolor="#ffffff"
     bordercolor="#666666"
     borderopacity="1"
     objecttolerance="10"
     gridtolerance="10"
     guidetolerance="10"
     inkscape:pageopacity="0"
     inkscape:pageshadow="2"
     inkscape:window-width="2241"
     inkscape:window-height="1266"
     id="namedview3755"
     showgrid="false"
     inkscape:zoom="5.3828503"
     inkscape:cx="116.06102"
     inkscape:cy="45.073965"
     inkscape:window-x="698"
     inkscape:window-y="0"
     inkscape:window-maximized="0"
     inkscape:current-layer="g3859"
     fit-margin-top="0"
     fit-margin-left="0"
     fit-margin-right="0"
     fit-margin-bottom="0" />
  <g
     id="g3839"
     transform="translate(-5.6310846,-10.020989)">
    <g
       id="g3859"
       transform="rotate(10.139437,36.71593,32.118227)">
      <g
         id="g3937"
         transform="matrix(0.54914925,0,0,0.54914925,19.781164,13.646568)">
        <g
           transform="translate(5.8329895,-5.8295128)"
           id="g3947"
           style="fill:none;stroke:#4caf50;stroke-opacity:1">
          <path
             style="fill:none;stroke:#4caf50;stroke-width:1px;stroke-linecap:butt;stroke-linejoin:miter;stroke-opacity:1"
             d="M 3.6916931,37.551367 4.511359,42.295404 69.83758,30.612314 68.257144,21.681541 7.0245243,32.62915"
             id="path3779-7"
             inkscape:connector-curvature="0"
             sodipodi:nodetypes="ccccc" />
          <path
             style="fill:none;stroke:#4caf50;stroke-width:1px;stroke-linecap:butt;stroke-linejoin:miter;stroke-opacity:1"
             d="M 6.3219055,41.842407 11.840859,31.925943"
             id="path3781-9"
             inkscape:connector-curvature="0"
             sodipodi:nodetypes="cc" />
          <path
             style="fill:none;stroke:#4caf50;stroke-width:1px;stroke-linecap:butt;stroke-linejoin:miter;stroke-opacity:1"
             d="m 14.925149,40.254489 6.310895,-10.15463"
             id="path3783-3"
             inkscape:connector-curvature="0"
             sodipodi:nodetypes="cc" />
          <path
             style="fill:none;stroke:#4caf50;stroke-width:1px;stroke-linecap:butt;stroke-linejoin:miter;stroke-opacity:1"
             d="M 24.254653,38.691131 29.837575,28.64187"
             id="path3785-8"
             inkscape:connector-curvature="0" />
          <path
             style="fill:none;stroke:#4caf50;stroke-width:1px;stroke-linecap:butt;stroke-linejoin:miter;stroke-opacity:1"
             d="M 33.187329,36.917732 38.70457,27.26256"
             id="path3787-0"
             inkscape:connector-curvature="0" />
          <path
             style="fill:none;stroke:#4caf50;stroke-width:1px;stroke-linecap:butt;stroke-linejoin:miter;stroke-opacity:1"
             d="M 41.266147,35.604104 47.571566,25.42348"
             id="path3789-2"
             inkscape:connector-curvature="0" />
          <path
             style="fill:none;stroke:#4caf50;stroke-width:1px;stroke-linecap:butt;stroke-linejoin:miter;stroke-opacity:1"
             d="m 50.198823,33.962067 6.3711,-10.246305"
             id="path3791-4"
             inkscape:connector-curvature="0" />
          <path
             style="fill:none;stroke:#4caf50;stroke-width:1px;stroke-linecap:butt;stroke-linejoin:miter;stroke-opacity:1"
             d="M 58.737411,32.779801 65.17419,22.467814"
             id="path3793-8"
             inkscape:connector-curvature="0" />
        </g>
        <path
           sodipodi:nodetypes="cccccc"
           inkscape:connector-curvature="0"
           id="path3949"
           d="m 10.344349,36.465891 5.135421,29.876078 c 0.355461,2.360718 0.206878,2.276084 2.72074,1.782029 L 78.699792,57.571361 c 2.4238,-0.500189 2.466904,-0.507897 2.005963,-2.960958 L 75.670569,24.782801"
           style="fill:none;stroke:#4caf50;stroke-width:1px;stroke-linecap:butt;stroke-linejoin:miter;stroke-opacity:1" />
        <path
           inkscape:connector-curvature="0"
           id="path3959"
           d="m 40.271795,39.689298 c 0.867213,4.849173 1.734427,9.698347 2.60164,14.54752 2.660229,-3.033483 5.320457,-6.066966 7.980686,-9.100449 -3.527442,-1.81569 -7.054884,-3.631381 -10.582326,-5.447071 z"
           style="fill:none;stroke:#4caf50;stroke-width:1px;stroke-linecap:butt;stroke-linejoin:round;stroke-opacity:1" />
      </g>
      <g
         id="g3916"
         transform="matrix(0.5489315,0.01546317,-0.01546317,0.5489315,20.443603,13.231212)"
         style="fill:none;stroke:#4caf50;stroke-opacity:1">
        <g
           transform="rotate(-11.610016,-113.47696,112.43198)"
           id="g3905"
           style="fill:none;stroke:#4caf50;stroke-opacity:1">
          <path
             style="fill:none;stroke:#4caf50;stroke-width:1px;stroke-linecap:butt;stroke-linejoin:miter;stroke-opacity:1"
             d="M 27.011838,53.567685 88.200034,42.624649 c -0.945538,-5.125616 -1.357421,-8.845102 -5.977021,-8.1445 L 25.002856,44.643253 c -2.088131,0.409161 -2.792144,2.450492 -2.756189,5.045226"
             id="path3779-7-3"
             inkscape:connector-curvature="0"
             sodipodi:nodetypes="ccccc" />
          <path
             style="fill:none;stroke:#4caf50;stroke-width:1px;stroke-linecap:butt;stroke-linejoin:miter;stroke-opacity:1"
             d="m 25.904769,51.483614 4.298544,-7.545336"
             id="path3781-9-9"
             inkscape:connector-curvature="0"
             sodipodi:nodetypes="cc" />
          <path
             style="fill:none;stroke:#4caf50;stroke-width:1px;stroke-linecap:butt;stroke-linejoin:miter;stroke-opacity:1"
             d="m 33.287602,52.266824 6.310895,-10.15463"
             id="path3783-3-0"
             inkscape:connector-curvature="0"
             sodipodi:nodetypes="cc" />
          <path
             style="fill:none;stroke:#4caf50;stroke-width:1px;stroke-linecap:butt;stroke-linejoin:miter;stroke-opacity:1"
             d="M 42.617107,50.703466 48.200028,40.654205"
             id="path3785-8-5"
             inkscape:connector-curvature="0" />
          <path
             style="fill:none;stroke:#4caf50;stroke-width:1px;stroke-linecap:butt;stroke-linejoin:miter;stroke-opacity:1"
             d="m 51.549782,48.930067 5.517242,-9.655172"
             id="path3787-0-2"
             inkscape:connector-curvature="0" />
          <path
             style="fill:none;stroke:#4caf50;stroke-width:1px;stroke-linecap:butt;stroke-linejoin:miter;stroke-opacity:1"
             d="M 59.628601,47.616439 65.93402,37.435815"
             id="path3789-2-2"
             inkscape:connector-curvature="0" />
          <path
             style="fill:none;stroke:#4caf50;stroke-width:1px;stroke-linecap:butt;stroke-linejoin:miter;stroke-opacity:1"
             d="M 68.561277,45.974402 74.932376,35.728097"
             id="path3791-4-7"
             inkscape:connector-curvature="0" />
          <path
             style="fill:none;stroke:#4caf50;stroke-width:1px;stroke-linecap:butt;stroke-linejoin:miter;stroke-opacity:1"
             d="M 77.099864,44.792136 83.536643,34.480149"
             id="path3793-8-3"
             inkscape:connector-curvature="0" />
        </g>
      </g>
      <circle
         transform="matrix(0.98438224,-0.17604432,-0.17604432,-0.98438224,0,0)"
         r="2.4166174"
         cy="-32.525406"
         cx="18.952045"
         id="path3955"
         style="fill:none;fill-opacity:1;stroke:#4caf50;stroke-width:0.54914927;stroke-opacity:1" />
      <g
         id="g4941"
         transform="matrix(0.17599932,-0.03147526,0.03147526,0.17599932,1.418031,9.1059822)">
        <g
           id="g4884">
          <path
             id="path4880"
             d="m 208.63873,301.34608 c -2.1,0 -4.17,0.86 -5.66,2.35 -1.48,1.49 -2.34,3.55 -2.34,5.65 0,2.11 0.86,4.17 2.34,5.66 1.49,1.49 3.56,2.34 5.66,2.34 2.11,0 4.17,-0.85 5.66,-2.34 1.49,-1.49 2.34,-3.55 2.34,-5.66 0,-2.1 -0.85,-4.16 -2.34,-5.65 -1.49,-1.489 -3.55,-2.35 -5.66,-2.35 z"
             inkscape:connector-curvature="0"
             style="fill:#4caf50;fill-opacity:1" />
        </g>
        <g
           id="g4886" />
        <g
           id="g4888" />
        <g
           id="g4890" />
        <g
           id="g4892" />
        <g
           id="g4894" />
        <g
           id="g4896" />
        <g
           id="g4898" />
        <g
           id="g4900" />
        <g
           id="g4902" />
        <g
           id="g4904" />
        <g
           id="g4906" />
        <g
           id="g4908" />
        <g
           id="g4910" />
        <g
           id="g4912" />
        <g
           id="g4914" />
      </g>
      <path
         transform="matrix(0.17599933,-0.03147526,0.03147526,0.17599933,1.418031,9.1059821)"
         style="color:#000000;font-style:normal;font-variant:normal;font-weight:normal;font-stretch:normal;font-size:medium;line-height:normal;font-family:sans-serif;font-variant-ligatures:normal;font-variant-position:normal;font-variant-caps:normal;font-variant-numeric:normal;font-variant-alternates:normal;font-feature-settings:normal;text-indent:0;text-align:start;text-decoration:none;text-decoration-line:none;text-decoration-style:solid;text-decoration-color:#000000;letter-spacing:normal;word-spacing:normal;text-transform:none;writing-mode:lr-tb;direction:ltr;text-orientation:mixed;dominant-baseline:auto;baseline-shift:baseline;text-anchor:start;white-space:normal;shape-padding:0;clip-rule:nonzero;display:inline;overflow:visible;visibility:visible;opacity:1;isolation:auto;mix-blend-mode:normal;color-interpolation:sRGB;color-interpolation-filters:linearRGB;solid-color:#000000;solid-opacity:1;vector-effect:none;fill:none;fill-opacity:1;fill-rule:nonzero;stroke:#4caf50;stroke-width:3.35586143;stroke-linecap:butt;stroke-linejoin:miter;stroke-miterlimit:4;stroke-dasharray:none;stroke-dashoffset:0;stroke-opacity:1;color-rendering:auto;image-rendering:auto;shape-rendering:auto;text-rendering:auto;enable-background:accumulate"
         d="m 40,39.541016 c -22.327173,0 -40.5,18.171823 -40.5,40.5 V 296.14453 c 0,22.32719 18.172812,40.5 40.5,40.5 l 118.64844,-5e-5 -0.77929,29.29686 -38.66016,5e-5 c -4.68826,0 -8.24024,0.95433 -8.24024,5.64259 0,4.68826 4.33127,5.12305 9.01953,5.12305 h 174.99024 c 4.68825,0 7.72071,-0.69456 7.72071,-5.38282 0,-4.68826 -3.81175,-5.38282 -8.5,-5.38282 h -39.74024 l 0.77929,-29.29686 h 120.86328 c 22.32719,0 40.5,-18.17281 40.5,-40.5 v -14.62109 c 0.0879,-0.4868 0.14649,-0.98625 0.14649,-1.50391 0,-0.52177 -0.0572,-1.02627 -0.14649,-1.51758 V 80.041016 c 0,-22.328177 -18.17282,-40.5 -40.5,-40.5 h -288.046872 -0.0059 z m 0,1 h 48.048828 0.0059 288.046872 c 21.78483,0 39.5,17.714176 39.5,39.5 V 278.5625 l 0.01,0.0469 c 0.0878,0.46049 0.13672,0.92946 0.13672,1.41015 0,0.48005 -0.0508,0.94914 -0.13867,1.41016 l -0.008,0.0469 v 14.66797 c 0,21.78481 -17.71519,39.5 -39.5,39.5 H 254.23828 l -0.77929,31.29686 h 40.74024 c 4.14774,0 7.5,0.23508 7.5,4.38282 0,4.14774 -2.57297,4.38282 -6.72071,4.38282 H 119.98828 c -4.14774,0 -8.01953,0.0247 -8.01953,-4.12305 0,-4.14774 3.0925,-4.64259 7.24024,-4.64259 l 39.66016,-5e-5 0.77929,-31.29686 L 40,335.64458 c -21.784812,10e-6 -39.5,-17.71519 -39.5,-39.5 V 80.041016 c 0,-21.785824 17.715173,-39.5 39.5,-39.5 z M 0.0707526,287.15217 416.76553,286.78481 Z m 159.5776874,48.49236 -0.77929,31.29686 h 96.58984 v -0.5 l 0.77929,-30.79686 z m 1,1 h 94.58984 l -0.77929,29.29686 h -94.58984 z"
         id="path4882"
         inkscape:connector-curvature="0"
         sodipodi:nodetypes="ssssccssssssccsscscssccssccssccsccssccssssssccsssscccccccccccccc" />
    </g>
  </g>
</svg>
